<svg xmlns="http://www.w3.org/2000/svg" xmlns:xlink="http://www.w3.org/1999/xlink" preserveAspectRatio="xMidYMid" width="8746" height="8760" viewBox="0 0 8746 8760"><defs><style>.cls-3 {fill: #eae9e9;}.cls-4 {fill: #ffffff;}.cls-5 {fill: #e6232e;}</style></defs><g id="gruppe-1"><ellipse id="ellipse-1" class="cls-3" cx="4373" cy="4380" rx="4373" ry="4380"/><path d="M4211.000 6736 C4211.000 6736 5329.8 6230.7 5925 5561 C6543.850 4864.7 6640 4003 6640 4003 C6640.000 4003 4874 2120 4874 2120 C4874.000 2120 3625 2354 3625 2354 C3625.000 2354 2206 3755 2206 3755 C2206.000 3755 2279 5520 2279 5520 C2279.000 5520 4211 6736 4211 6736 Z" id="path-1" class="cls-4" fill-rule="evenodd"/><path d="M4371.000 407 C4373.051 408.3 4841.9 1183 5576 2395 C6377.253 2395 7178.7 2395 7980 2395 C7579.707 3056.6 7179.3 3718.4 6779 4380 C7179.293 5040.9 7579.7 5702.1 7980 6363 C7178.747 6363 6377.3 6363 5576 6363 C5174.707 7025.6 4773.3 7688.4 4372 8351 C4371.333 8350.7 4370.7 8350.3 4370 8350 C3969.373 7687.7 3568.6 7025.3 3168 6363 C2366.747 6363 1565.3 6363 764 6363 C764.333 6362 764.7 6361 765 6360 C1164.960 5699.4 1565 5038.6 1965 4378 C1564.707 3717.1 1164.3 3055.9 764 2395 C1565.253 2395 2366.7 2395 3168 2395 C3568.960 1732.4 3970 1069.6 4371 407 ZM3859.000 2574 C4200.966 2574 4543 2574 4885 2574 C4885.000 3005.6 4885 3437.4 4885 3869 C5343.288 3869 5801.7 3869 6260 3869 C6260.000 4209 6260 4549 6260 4889 C5801.712 4889 5343.3 4889 4885 4889 C4885.000 5319 4885 5749 4885 6179 C4543.034 6179 4201 6179 3859 6179 C3859.000 5749 3859 5319 3859 4889 C3400.712 4889 2942.3 4889 2484 4889 C2484.000 4549 2484 4209 2484 3869 C2942.288 3869 3400.7 3869 3859 3869 C3859.000 3437.4 3859 3005.6 3859 2574 Z" id="path-2" class="cls-5" fill-rule="evenodd"/></g></svg>